# holster bracket reticle: 4 corner L-brackets, flat, radius 1.0
v 0.7071 0.7271 0
v 0.7071 0.6871 0
v 0.2571 0.6871 0
v 0.2571 0.7271 0
v 0.7271 0.7071 0
v 0.6871 0.7071 0
v 0.6871 0.2571 0
v 0.7271 0.2571 0
v 0.7071 -0.7271 0
v 0.7071 -0.6871 0
v 0.2571 -0.6871 0
v 0.2571 -0.7271 0
v 0.7271 -0.7071 0
v 0.6871 -0.7071 0
v 0.6871 -0.2571 0
v 0.7271 -0.2571 0
v -0.7071 0.7271 0
v -0.7071 0.6871 0
v -0.2571 0.6871 0
v -0.2571 0.7271 0
v -0.7271 0.7071 0
v -0.6871 0.7071 0
v -0.6871 0.2571 0
v -0.7271 0.2571 0
v -0.7071 -0.7271 0
v -0.7071 -0.6871 0
v -0.2571 -0.6871 0
v -0.2571 -0.7271 0
v -0.7271 -0.7071 0
v -0.6871 -0.7071 0
v -0.6871 -0.2571 0
v -0.7271 -0.2571 0
f 1 2 3
f 1 3 4
f 5 6 7
f 5 7 8
f 9 10 11
f 9 11 12
f 13 14 15
f 13 15 16
f 17 18 19
f 17 19 20
f 21 22 23
f 21 23 24
f 25 26 27
f 25 27 28
f 29 30 31
f 29 31 32
